# xmcd
#
# Track frame offsets:
#	150
#	28123
#	45268
#	60298
#	81485
#	99413
#	111595
#	122375
#	134670
#	151458
#	162250
#	176625
#	191108
#	209540
#	226055
#
# Disc length: 3105 seconds
#
# Revision: 196608
# Processed by: cddbd v1.5.2PL0 Copyright (c) Steve Scherf et al.
# Submitted via: EZCDAudioConverter 8.2.1.1
#
DISCID=ca0c1f0f
DTITLE=Johnny Cash - Storytellers
DYEAR=1998
DGENRE=Pop/Country
TTITLE0=(Ghost) Riders in the Sky - (1998)
TTITLE1=Worried Man - (1998)
TTITLE2=Family Bible - (1998)
TTITLE3=Don't Take Your Guns to Town - (1998)
TTITLE4=Funny How Time Slips Away - (1998)
TTITLE5=Flesh and Blood - (1998)
TTITLE6=Crazy - (1998)
TTITLE7=Unchained - (1998)
TTITLE8=Night Life - (1998)
TTITLE9=Drive On - (1998)
TTITLE10=Me and Paul - (1998)
TTITLE11=I Still Miss Someone - (1998)
TTITLE12=Always on My Mind - (1998)
TTITLE13=Folsom Prison Blues - (1998)
TTITLE14=On the Road Again - (1998)
EXTD=
EXTT0=
EXTT1=
EXTT2=
EXTT3=
EXTT4=
EXTT5=
EXTT6=
EXTT7=
EXTT8=
EXTT9=
EXTT10=
EXTT11=
EXTT12=
EXTT13=
EXTT14=
PLAYORDER=
